<svg xmlns="http://www.w3.org/2000/svg" xmlns:xlink="http://www.w3.org/1999/xlink" width="500" zoomAndPan="magnify" viewBox="0 0 375 374.999991" height="500" preserveAspectRatio="xMidYMid meet" version="1.0"><defs><g/><clipPath id="3b43985ed3"><path d="M 187.5 0 C 83.945312 0 0 83.945312 0 187.5 C 0 291.054688 83.945312 375 187.5 375 C 291.054688 375 375 291.054688 375 187.5 C 375 83.945312 291.054688 0 187.5 0 Z M 187.5 0 " clip-rule="nonzero"/></clipPath><clipPath id="4f6a791369"><path d="M 0 0 L 375 0 L 375 375 L 0 375 Z M 0 0 " clip-rule="nonzero"/></clipPath><clipPath id="b955c24968"><path d="M 187.5 0 C 83.945312 0 0 83.945312 0 187.5 C 0 291.054688 83.945312 375 187.5 375 C 291.054688 375 375 291.054688 375 187.5 C 375 83.945312 291.054688 0 187.5 0 Z M 187.5 0 " clip-rule="nonzero"/></clipPath><clipPath id="81ad0d92a8"><rect x="0" width="375" y="0" height="375"/></clipPath></defs><g clip-path="url(#3b43985ed3)"><g transform="matrix(1, 0, 0, 1, 0, 0)"><g clip-path="url(#81ad0d92a8)"><g clip-path="url(#4f6a791369)"><g clip-path="url(#b955c24968)"><rect x="-82.5" width="540" fill="#00a63d" height="539.999987" y="-82.499998" fill-opacity="1"/></g></g></g></g></g><g fill="#ffffff" fill-opacity="1"><g transform="translate(90.341049, 251.999983)"><g><path d="M 9.796875 0 L 9.796875 -130.234375 L 40.734375 -130.234375 L 40.734375 -25.515625 L 95.875 -25.515625 L 95.875 0 Z M 9.796875 0 "/></g></g></g><g fill="#ffffff" fill-opacity="1"><g transform="translate(166.308767, 251.999983)"><g><path d="M 9.796875 0 L 9.796875 -130.234375 L 63.1875 -130.234375 C 73.039062 -130.234375 81.535156 -128.46875 88.671875 -124.9375 C 95.804688 -121.414062 101.3125 -116.40625 105.1875 -109.90625 C 109.0625 -103.40625 111 -95.703125 111 -86.796875 C 111 -77.878906 109.015625 -70.257812 105.046875 -63.9375 C 101.085938 -57.613281 95.453125 -52.789062 88.140625 -49.46875 C 80.828125 -46.144531 72.132812 -44.484375 62.0625 -44.484375 L 28.3125 -44.484375 L 28.3125 -68.953125 L 57.59375 -68.953125 C 62.3125 -68.953125 66.273438 -69.609375 69.484375 -70.921875 C 72.691406 -72.234375 75.125 -74.210938 76.78125 -76.859375 C 78.445312 -79.515625 79.28125 -82.828125 79.28125 -86.796875 C 79.28125 -90.816406 78.445312 -94.164062 76.78125 -96.84375 C 75.125 -99.519531 72.691406 -101.554688 69.484375 -102.953125 C 66.273438 -104.359375 62.3125 -105.0625 57.59375 -105.0625 L 40.734375 -105.0625 L 40.734375 0 Z M 81.640625 0 L 50.4375 -59.34375 L 83.375 -59.34375 L 115.28125 0 Z M 81.640625 0 "/></g></g></g></svg>